# Blender 3.6.4
# www.blender.org
mtllib Bush1.mtl
o Icosphere
v 0.000000 0.000000 0.000000
v 0.723600 0.052785 0.525720
v -0.276385 0.052785 0.850640
v -0.894425 0.052785 0.000000
v -0.276385 0.052785 -0.850640
v 0.723600 0.052785 -0.525720
v 0.276385 0.947215 0.850640
v -0.723600 0.947215 0.525720
v -0.723600 0.947215 -0.525720
v 0.276385 0.947215 -0.850640
v 0.894425 0.947215 0.000000
v 0.000000 1.500000 0.000000
v 0.000000 0.000000 0.000000
v 0.723600 0.052785 0.525720
v -0.276385 0.052785 0.850640
v -0.894425 0.052785 0.000000
v -0.276385 0.052785 -0.850640
v 0.723600 0.052785 -0.525720
v 0.276385 0.947215 0.850640
v -0.723600 0.947215 0.525720
v -0.723600 0.947215 -0.525720
v 0.276385 0.947215 -0.850640
v 0.894425 0.947215 0.000000
v 0.000000 1.500000 0.000000
v -0.059969 0.016373 -1.023291
v 0.280347 0.041199 -0.776040
v -0.189955 0.041199 -0.623227
v -0.480625 0.041199 -1.023291
v -0.189955 0.041199 -1.423355
v 0.280347 0.041199 -1.270542
v 0.070018 0.461857 -0.623227
v -0.400284 0.461857 -0.776040
v -0.400284 0.461857 -1.270542
v 0.070018 0.461857 -1.423355
v 0.360687 0.461857 -1.023291
v -0.059969 0.721837 -1.023291
v 0.848725 0.016373 0.678297
v 1.189041 0.041199 0.925548
v 0.718739 0.041199 1.078361
v 0.428069 0.041199 0.678297
v 0.718739 0.041199 0.278233
v 1.189041 0.041199 0.431046
v 0.978712 0.461857 1.078361
v 0.508410 0.461857 0.925548
v 0.508410 0.461857 0.431046
v 0.978712 0.461857 0.278233
v 1.269382 0.461857 0.678297
v 0.848725 0.721837 0.678297
v 0.848725 0.016373 0.678297
v 1.189041 0.041199 0.925548
v 0.718739 0.041199 1.078361
v 0.428069 0.041199 0.678297
v 0.718739 0.041199 0.278233
v 1.189041 0.041199 0.431046
v 0.978712 0.461857 1.078361
v 0.508410 0.461857 0.925548
v 0.508410 0.461857 0.431046
v 0.978712 0.461857 0.278233
v 1.269382 0.461857 0.678297
v 0.848725 0.721837 0.678297
v -0.991689 0.035375 0.460861
v -0.651373 0.060200 0.708112
v -1.121675 0.060200 0.860925
v -1.412345 0.060200 0.460861
v -1.121675 0.060200 0.060798
v -0.651373 0.060200 0.213610
v -0.861702 0.480858 0.860925
v -1.332004 0.480858 0.708112
v -1.332004 0.480858 0.213610
v -0.861702 0.480858 0.060798
v -0.571033 0.480858 0.460861
v -0.991689 0.740838 0.460861
vn 0.0225 -0.9973 0.0692
vn 0.0728 -0.9974 -0.0000
vn -0.0589 -0.9973 0.0428
vn -0.0589 -0.9973 -0.0428
vn 0.0225 -0.9973 -0.0692
vn 0.9822 -0.1876 -0.0000
vn 0.3035 -0.1876 0.9342
vn -0.7946 -0.1876 0.5774
vn -0.7946 -0.1876 -0.5774
vn 0.3035 -0.1876 -0.9342
vn 0.7946 0.1876 0.5774
vn -0.3035 0.1876 0.9342
vn -0.9822 0.1876 -0.0000
vn -0.3035 0.1876 -0.9342
vn 0.7946 0.1876 -0.5774
vn 0.4911 0.7947 0.3568
vn -0.1876 0.7947 0.5774
vn -0.6071 0.7947 -0.0000
vn -0.1876 0.7947 -0.5774
vn 0.4911 0.7947 -0.3568
vn 0.0728 -0.9973 -0.0000
vt 0.181819 0.000000
vt 0.272728 0.157461
vt 0.090910 0.157461
vt 0.363637 0.000000
vt 0.454546 0.157461
vt 0.909091 0.000000
vt 1.000000 0.157461
vt 0.818182 0.157461
vt 0.727273 0.000000
vt 0.636364 0.157461
vt 0.545455 0.000000
vt 0.363637 0.314921
vt 0.181819 0.314921
vt 0.909091 0.314921
vt 0.727273 0.314921
vt 0.545455 0.314921
vt 0.000000 0.314921
vt 0.272728 0.472382
vt 0.090910 0.472382
vt 0.818182 0.472382
vt 0.636364 0.472382
vt 0.454546 0.472382
s 0
usemtl Material.001
f 1/1/1 2/2/1 3/3/1
f 2/2/2 1/4/2 6/5/2
f 1/6/3 3/7/3 4/8/3
f 1/9/4 4/8/4 5/10/4
f 1/11/5 5/10/5 6/5/5
f 2/2/6 6/5/6 11/12/6
f 3/3/7 2/2/7 7/13/7
f 4/8/8 3/7/8 8/14/8
f 5/10/9 4/8/9 9/15/9
f 6/5/10 5/10/10 10/16/10
f 2/2/11 11/12/11 7/13/11
f 3/3/12 7/13/12 8/17/12
f 4/8/13 8/14/13 9/15/13
f 5/10/14 9/15/14 10/16/14
f 6/5/15 10/16/15 11/12/15
f 7/13/16 11/12/16 12/18/16
f 8/17/17 7/13/17 12/19/17
f 9/15/18 8/14/18 12/20/18
f 10/16/19 9/15/19 12/21/19
f 11/12/20 10/16/20 12/22/20
f 13/1/1 14/2/1 15/3/1
f 14/2/2 13/4/2 18/5/2
f 13/6/3 15/7/3 16/8/3
f 13/9/4 16/8/4 17/10/4
f 13/11/5 17/10/5 18/5/5
f 14/2/6 18/5/6 23/12/6
f 15/3/7 14/2/7 19/13/7
f 16/8/8 15/7/8 20/14/8
f 17/10/9 16/8/9 21/15/9
f 18/5/10 17/10/10 22/16/10
f 14/2/11 23/12/11 19/13/11
f 15/3/12 19/13/12 20/17/12
f 16/8/13 20/14/13 21/15/13
f 17/10/14 21/15/14 22/16/14
f 18/5/15 22/16/15 23/12/15
f 19/13/16 23/12/16 24/18/16
f 20/17/17 19/13/17 24/19/17
f 21/15/18 20/14/18 24/20/18
f 22/16/19 21/15/19 24/21/19
f 23/12/20 22/16/20 24/22/20
f 25/1/1 26/2/1 27/3/1
f 26/2/2 25/4/2 30/5/2
f 25/6/3 27/7/3 28/8/3
f 25/9/4 28/8/4 29/10/4
f 25/11/5 29/10/5 30/5/5
f 26/2/6 30/5/6 35/12/6
f 27/3/7 26/2/7 31/13/7
f 28/8/8 27/7/8 32/14/8
f 29/10/9 28/8/9 33/15/9
f 30/5/10 29/10/10 34/16/10
f 26/2/11 35/12/11 31/13/11
f 27/3/12 31/13/12 32/17/12
f 28/8/13 32/14/13 33/15/13
f 29/10/14 33/15/14 34/16/14
f 30/5/15 34/16/15 35/12/15
f 31/13/16 35/12/16 36/18/16
f 32/17/17 31/13/17 36/19/17
f 33/15/18 32/14/18 36/20/18
f 34/16/19 33/15/19 36/21/19
f 35/12/20 34/16/20 36/22/20
f 37/1/1 38/2/1 39/3/1
f 38/2/21 37/4/21 42/5/21
f 37/6/3 39/7/3 40/8/3
f 37/9/4 40/8/4 41/10/4
f 37/11/5 41/10/5 42/5/5
f 38/2/6 42/5/6 47/12/6
f 39/3/7 38/2/7 43/13/7
f 40/8/8 39/7/8 44/14/8
f 41/10/9 40/8/9 45/15/9
f 42/5/10 41/10/10 46/16/10
f 38/2/11 47/12/11 43/13/11
f 39/3/12 43/13/12 44/17/12
f 40/8/13 44/14/13 45/15/13
f 41/10/14 45/15/14 46/16/14
f 42/5/15 46/16/15 47/12/15
f 43/13/16 47/12/16 48/18/16
f 44/17/17 43/13/17 48/19/17
f 45/15/18 44/14/18 48/20/18
f 46/16/19 45/15/19 48/21/19
f 47/12/20 46/16/20 48/22/20
f 49/1/1 50/2/1 51/3/1
f 50/2/21 49/4/21 54/5/21
f 49/6/3 51/7/3 52/8/3
f 49/9/4 52/8/4 53/10/4
f 49/11/5 53/10/5 54/5/5
f 50/2/6 54/5/6 59/12/6
f 51/3/7 50/2/7 55/13/7
f 52/8/8 51/7/8 56/14/8
f 53/10/9 52/8/9 57/15/9
f 54/5/10 53/10/10 58/16/10
f 50/2/11 59/12/11 55/13/11
f 51/3/12 55/13/12 56/17/12
f 52/8/13 56/14/13 57/15/13
f 53/10/14 57/15/14 58/16/14
f 54/5/15 58/16/15 59/12/15
f 55/13/16 59/12/16 60/18/16
f 56/17/17 55/13/17 60/19/17
f 57/15/18 56/14/18 60/20/18
f 58/16/19 57/15/19 60/21/19
f 59/12/20 58/16/20 60/22/20
f 61/1/1 62/2/1 63/3/1
f 62/2/21 61/4/21 66/5/21
f 61/6/3 63/7/3 64/8/3
f 61/9/4 64/8/4 65/10/4
f 61/11/5 65/10/5 66/5/5
f 62/2/6 66/5/6 71/12/6
f 63/3/7 62/2/7 67/13/7
f 64/8/8 63/7/8 68/14/8
f 65/10/9 64/8/9 69/15/9
f 66/5/10 65/10/10 70/16/10
f 62/2/11 71/12/11 67/13/11
f 63/3/12 67/13/12 68/17/12
f 64/8/13 68/14/13 69/15/13
f 65/10/14 69/15/14 70/16/14
f 66/5/15 70/16/15 71/12/15
f 67/13/16 71/12/16 72/18/16
f 68/17/17 67/13/17 72/19/17
f 69/15/18 68/14/18 72/20/18
f 70/16/19 69/15/19 72/21/19
f 71/12/20 70/16/20 72/22/20
